<?xml version="1.0" encoding="UTF-8"?>
<!--Generator: Apple Native CoreSVG 341-->
<!DOCTYPE svg
PUBLIC "-//W3C//DTD SVG 1.1//EN"
       "http://www.w3.org/Graphics/SVG/1.1/DTD/svg11.dtd">
<svg version="1.1" xmlns="http://www.w3.org/2000/svg" xmlns:xlink="http://www.w3.org/1999/xlink" viewBox="0 0 254.395 254.59">
 <g>
  <rect height="254.59" opacity="0" width="254.395" x="0" y="0"/>
  <path d="M127.148 254.395C197.363 254.395 254.395 197.461 254.395 127.246C254.395 57.0312 197.363 0 127.246 0C120.898 0 118.066 3.61328 118.066 9.47266L118.066 49.4141C118.066 54.1992 121.191 57.9102 126.074 57.9102C130.859 57.9102 133.984 54.1992 133.984 49.4141L133.984 18.6523C188.672 21.6797 236.133 66.9922 236.133 127.246C236.133 187.5 187.402 236.23 127.148 236.23C66.8945 236.23 18.1641 187.5 18.1641 127.344C18.1641 99.4141 28.7109 74.2188 45.5078 55.1758C48.8281 51.1719 48.9258 45.7031 45.3125 41.9922C41.7969 38.1836 35.7422 38.5742 31.8359 43.1641C12.1094 65.625 0 94.8242 0 127.246C0 197.461 56.9336 254.395 127.148 254.395Z" fill="white" fill-opacity="0.85"/>
  <path d="M127.148 146.484C137.891 146.484 146.484 137.891 146.484 127.246C146.484 120.703 143.262 115.039 138.184 111.426L75 66.3086C69.3359 62.3047 63.4766 68.0664 67.4805 73.9258L110.352 136.816C114.258 142.578 120.117 146.484 127.148 146.484Z" fill="white" fill-opacity="0.85"/>
 </g>
</svg>
